<svg id="Logos" xmlns="http://www.w3.org/2000/svg" viewBox="0 0 1290 340"><defs><style>.cls-1{fill:#ffc000;}.cls-2{fill:#fff;}</style></defs><title>HiveMQ-CI-complete</title><path d="M507.93,39.45V185.7a6.16,6.16,0,0,1-6.27,6L469,191.46c0-57.13,0-57.18,0-57.18a6.15,6.15,0,0,0-6.26-6H410.4a6.15,6.15,0,0,0-6.26,6L404,191.46c-31.16,0-32.55.28-32.55.28a6.16,6.16,0,0,1-6.27-6V39.45a6.16,6.16,0,0,1,6.27-6L404,33.6c0,55.24.19,56.43.19,56.43a6.15,6.15,0,0,0,6.26,6h52.26a6.15,6.15,0,0,0,6.26-6l-.08-56.51c36.51,0,32.82-.11,32.82-.11A6.16,6.16,0,0,1,507.93,39.45Z"/><path d="M548.14,51.74h23.45a5.44,5.44,0,0,1,5.54,5.35V186.61a5.45,5.45,0,0,1-5.54,5.35H548.14a5.46,5.46,0,0,1-5.55-5.35V57.09A5.45,5.45,0,0,1,548.14,51.74Z"/><path d="M741.35,58.83,694.33,190a5.55,5.55,0,0,1-5.25,3.6H653.24A5.54,5.54,0,0,1,648,190L600.8,58.84a5.37,5.37,0,0,1,5.24-7.1h23.71A5.53,5.53,0,0,1,635,55.38l30.88,88.69a5.62,5.62,0,0,0,10.52,0l30.71-88.67a5.55,5.55,0,0,1,5.27-3.65H736.1A5.38,5.38,0,0,1,741.35,58.83Z"/><path d="M862.1,170.67v15.94a5.46,5.46,0,0,1-5.55,5.35h-86a5.45,5.45,0,0,1-5.54-5.35V57.09a5.44,5.44,0,0,1,5.54-5.35h85.05a5.45,5.45,0,0,1,5.55,5.35V73a5.46,5.46,0,0,1-5.55,5.35h-50.5a5.44,5.44,0,0,0-5.55,5.34s-.07-.07-.07,24.48c0,0-.7.09,51.74.09l0,26.19c-54.14,0-51.9.2-51.9.2,0,25.73.19,25.29.19,25.29a5.45,5.45,0,0,0,5.55,5.35h51.46A5.45,5.45,0,0,1,862.1,170.67Z"/><path d="M1070.76,39.45V185.7a6.15,6.15,0,0,1-6.26,6H1038a6.16,6.16,0,0,1-6.27-6l-.37-92.92c0-5.92-35,43.92-35,43.92a6.33,6.33,0,0,1-5.16,2.61H978.31a6.32,6.32,0,0,1-5.18-2.64S938.4,86.5,938.4,92.45l.19,93.25a6.16,6.16,0,0,1-6.27,6H905.85a6.16,6.16,0,0,1-6.27-6V39.45a6.16,6.16,0,0,1,6.27-6H941.3a6.35,6.35,0,0,1,5.21,2.68L980,84.38a6.4,6.4,0,0,0,10.42,0l33.45-48.29a6.35,6.35,0,0,1,5.21-2.68h35.46A6.15,6.15,0,0,1,1070.76,39.45Z"/><path d="M1257.44,149.76a69.64,69.64,0,0,1-16.53,24,5.84,5.84,0,0,0-.28,8.26l21.62,22.82c-39.5,0-41.69.29-41.69.29a6.34,6.34,0,0,1-4.76-2.12l-7.09-8a6.48,6.48,0,0,0-6.27-1.93,104.67,104.67,0,0,1-22.25,2.22q-27.3,0-46.37-10.76a69.59,69.59,0,0,1-28.6-29.45q-9.54-18.69-9.53-42.3,0-23.18,9.53-41.77a71,71,0,0,1,28.6-29.56q19.07-11,46.37-11,26.86,0,45.94,11a71.68,71.68,0,0,1,28.71,29.66q9.65,18.7,9.64,41.67A94.4,94.4,0,0,1,1257.44,149.76Zm-110.4-.11q11.48,13.89,33.15,13.89h.44l-10.14-11.32a6,6,0,0,1,4.75-10H1202a6.38,6.38,0,0,1,4.73,2.08h0c2.81,3.12,7,5.78,9.16,2.19a88.09,88.09,0,0,0,5.43-12.94,67.07,67.07,0,0,0,3.25-21.41,60.64,60.64,0,0,0-5.2-25.69,41,41,0,0,0-15.27-17.76q-10.08-6.46-24-6.48-21.45,0-33,14t-11.6,36.55Q1135.55,135.76,1147,149.65Z"/><path d="M420.35,266.38q-1.43,12.17-9,18.79t-20.1,6.61q-13.61,0-21.8-9.75t-8.19-26.09v-7.38a43.66,43.66,0,0,1,3.82-18.81,28.54,28.54,0,0,1,10.83-12.47,30.13,30.13,0,0,1,16.23-4.35q12.23,0,19.61,6.83t8.59,18.89H410.18q-1.32-9.19-5.72-13.32t-12.31-4.12q-9.69,0-15.2,7.17t-5.51,20.42v7.43q0,12.51,5.22,19.89a16.86,16.86,0,0,0,14.6,7.39q8.43,0,12.94-3.83t6-13.3Z"/><path d="M444.87,282.45h36.37v8.28H434.7V214h10.17Z"/><path d="M504.17,290.73H494.05V214h10.12Z"/><circle class="cls-1" cx="158.23" cy="168.69" r="140.28"/><path d="M158.23,315.36c-80.87,0-146.67-65.79-146.67-146.67S77.36,22,158.23,22,304.9,87.82,304.9,168.69,239.11,315.36,158.23,315.36Zm0-280.56C84.41,34.8,24.35,94.87,24.35,168.69S84.41,302.58,158.23,302.58s133.89-60.06,133.89-133.89S232.06,34.8,158.23,34.8Z"/><polygon points="289.75 222.74 102.59 222.74 102.59 119.23 289.75 119.23 297.32 174.55 289.75 222.74"/><path class="cls-2" d="M182.18,189.46s-23,2.09-62.62,2.09c-25.34,0-64.81-2.09-64.81-2.09-7.85-.88-14.31-6.44-14.31-14.31v-7.86c0-7.87,5.15-12.62,14.31-13.41,0,0,42.5-2.09,61.87-2.09s65.56,2.09,65.56,2.09c8.24,1.48,17.07,5,17.07,12.81v8.46C199.25,183,190.42,188.58,182.18,189.46Z"/><path class="cls-2" d="M179,152.81s-31-2.23-59.74-2.09-59.49,2.09-59.49,2.09c-6.21-1.49-8-7.23-8-14.24v-5c0-6.54,9.41-13,17.78-13.85,0,0,30.93-2.1,51.89-2.09S170.12,120,170.12,120c7.39.38,16.9,7.49,16.93,13.55v5C187.05,145.58,185.21,151.32,179,152.81Z"/><path class="cls-2" d="M168.37,119.41s-25.14-1.58-42.67-1.79-46.92,1.79-46.92,1.79c-5,0-6.45-4.6-6.45-10.22V104c0-5.25,6.9-8.24,14.09-10.29,4.21-1.2,14.61-4.6,38.6-4.78,11.8-.09,30.36,2.73,38.15,4.2,6.56,1.23,11.63,6,11.65,10.87v5.19C174.82,114.81,173.35,119.41,168.37,119.41Z"/><path class="cls-2" d="M182,189.23s-31,2.24-59.74,2.09-59.49-1.49-59.49-1.49c-4.1-.37-8,6.63-8,13.65v5c0,6.55,9.4,13,17.78,13.86,0,0,30.93,2.09,51.89,2.09S173.11,222,173.11,222c7.38-.38,16.9-7.5,16.92-13.56v-5C190,196.46,188.2,190.73,182,189.23Z"/><path class="cls-2" d="M168.27,222.63s-25.14,1.59-42.67,1.8-46.92-1.8-46.92-1.8c-5,0-6.45,4.6-6.45,10.22v5.2c0,5.24,7,10.57,14.25,12.66,4.21,1.22,14.15,4,38.14,4.2,11.8.09,30.66-2.73,38.45-4.2,6.55-1.23,11.62-7.81,11.64-12.66v-5.2C174.71,227.23,173.24,222.63,168.27,222.63Z"/><path d="M186.62,152l-.24,0c-.47,0-45.84-2-67-2.09h-2c-20.16,0-64.61,2.08-65.13,2.1-10.66.88-18.62,6.46-18.62,15.32v7.86c0,8.37,8.88,15.19,18.58,16.22h.1c.41,0,40.62,2,67,2.1h1.15c41.21,0,65.68-2.08,65.92-2.1h0c9.86-1,18.59-7.67,18.59-16.22v-8.46C205.08,158.82,197.64,153.88,186.62,152Zm-67.45,38C94,190,55.83,188,54.1,187.9c-7.57-.86-12.84-6.07-12.84-12.68v-8.05c0-8.81,7-11.26,12.77-11.76.44,0,43.6-2.13,63.17-2.14h2c20,.13,62.2,2,64.89,2.13,11.55,2.11,12.89,7.37,12.89,11.15v8.66c0,6.76-5.17,11.86-12.86,12.68-.7.07-24.3,2.14-63.86,2.14Z"/><path d="M172.82,118.12c-.29,0-29.49-2.4-51.32-2.4h-2.12c-21.73.12-52.18,2.07-52.55,2.09-9.43.87-20.41,7.94-20.41,15.76v5c0,9.18,3.35,14.6,9.94,16.11l.27.06h.27l2.17-.13.25.08.28.07.29,0c.31,0,31-1.95,59.38-2.09s59.28,2.06,59.59,2.09l.3,0,.29-.07.3-.09,2.11.14.28,0,.28-.07c6.59-1.51,9.93-6.93,9.93-16.11v-5C192.32,126.24,181.1,118.52,172.82,118.12Zm-53.57,30.69c-24.78.12-51.25,1.46-59.77,1.93-2.7-.87-5.84-3.32-5.84-12.17v-5c0-5.15,8.1-11.17,16-11.94.29,0,29.16-2,49.74-2.08h2.05c20.62,0,48.25,2.36,48.59,2.39,6.62.34,15.09,6.87,15.11,11.64v5c0,8.79-3.1,11.26-5.78,12.15C170.83,150.2,144.1,148.69,119.25,148.81Z"/><path d="M166,89.22c-7.73-3-27.67-5-40.77-4.92-24,.17-34.89,3.22-41,5.51C75.62,93,68,96.4,68,103.08v5.19c0,10,4.73,12.14,8.69,12.14h.12l1-.06a9.59,9.59,0,0,0,1.06.07h.13c.29,0,29.52-2,46.77-1.79s42.32,1.78,42.57,1.79h.12a10.32,10.32,0,0,0,1.1-.07l1.13.06h.11c4,0,8.69-2.11,8.69-12.14v-5.2C179.37,96.71,172.14,91.64,166,89.22Zm-40,25.56-2.8,0h-1.55c-16.11.08-38.3,1.39-43.79,1.73-1.47-.29-3.54-1.65-3.54-8.23v-5.19c0-3.25,4.15-6,12.7-8.45l.72-.21c4.46-1.29,14.9-4.33,37.36-4.5,12.35-.09,31.46,3,37.78,4.17,5.55,1,10.07,5.08,10.09,9v5.19c0,6.55-2.05,7.93-3.52,8.22C163.61,116.16,141.72,115,125.93,114.78Z"/><path d="M185.55,188.28l-.27-.06-.29,0-2.22.14-.33-.09-.29-.07-.3,0c-.29,0-27.37,1.95-54,2.09H122.4l-3,0c-27.54-.21-56.27-1.46-56.48-1.47a5.33,5.33,0,0,0-1.38.06l-1.46-.06a7,7,0,0,0-5.31,2.07c-3.12,2.87-5.22,8.29-5.22,13.49v5c0,7.81,11,14.89,20.46,15.76.3,0,27.93,1.79,49.33,2.06,1.71,0,3.39,0,5,0h.29c21.83,0,51-2.38,51.25-2.4,8.35-.4,19.57-8.12,19.6-15.46v-5C195.49,195.22,192.15,189.8,185.55,188.28Zm-66.13,35.1c-20.27-.27-46.51-2-46.74-2-8-.77-16.05-6.8-16.05-11.94v-5c0-4.75,2-9,3.91-10.81a3.78,3.78,0,0,1,1.39-.84c7.31.28,32.8,1.21,57.43,1.39l2.88,0h2.67c24,0,49.1-1.41,57.45-1.92,2.68.9,5.76,3.38,5.76,12.15v5c0,4.77-8.49,11.31-15.17,11.65-.28,0-27.85,2.37-48.47,2.38Z"/><path d="M170.61,221.64h-.11l-1.13.07a10.32,10.32,0,0,0-1.1-.07h-.12c-.25,0-25.3,1.59-42.57,1.79s-46.48-1.77-46.77-1.79h-.13a9.42,9.42,0,0,0-1.06.06l-1-.06h-.12c-4,0-8.69,2.1-8.69,12.14V239c0,6.56,8.73,12.21,16.2,15.05,3.46,1.32,14,5.33,40.71,5.52h1c12,0,31.94-1.45,40-4.31,8.42-3,13.49-10.6,13.51-16.26v-5.19C179.3,223.74,174.58,221.64,170.61,221.64Zm-48.67,5.64h3.89c15.79-.18,37.68-1.39,43.45-1.72,1.47.29,3.52,1.67,3.52,8.23V239c0,4-4.52,9.74-10.09,10.79-8.8,1.65-26.91,4.28-38.08,4.16-24-.17-33.89-3-37.62-4.12-7.09-2-12.86-6.91-12.86-10.82v-5.19c0-6.59,2.06-7.95,3.54-8.23C83.25,225.89,105.81,227.21,121.94,227.28Z"/><path d="M133.49,208c0,5.65,0,10.74-10.23,10.23C111.17,217.6,113,213.61,113,208a10.23,10.23,0,1,1,20.46,0Z"/><circle cx="183.53" cy="69.22" r="5.82"/><circle cx="200.44" cy="96.12" r="4.52"/><circle cx="150.31" cy="68.02" r="9.18"/><circle cx="113.4" cy="64.92" r="5.97"/><path class="cls-2" d="M235.52,164.56l-20.63-8.65V144.06l30.93,15.55v10l-30.93,15.6V173.34Z"/><path class="cls-2" d="M272.08,197.33H243.43V187.7h28.65Z"/></svg>