<svg id="Logos" xmlns="http://www.w3.org/2000/svg" viewBox="0 0 1488.28 340"><defs><style>.cls-1{fill:#fcc414;}.cls-2{fill:#fff;}</style></defs><title>HiveMQ-CI-complete</title><circle class="cls-1" cx="169.56" cy="169.51" r="138.55"/><path class="cls-2" d="M169.47,332.47C79.88,332.47,7,259.59,7,170S79.88,7.53,169.47,7.53,331.94,80.41,331.94,170,259.05,332.47,169.47,332.47Zm0-311.21C87.46,21.26,20.73,88,20.73,170S87.46,318.74,169.47,318.74,318.21,252,318.21,170,251.48,21.26,169.47,21.26Z"/><path class="cls-2" d="M31,169.51a138,138,0,0,0,21.45,74.08l102.77-77.27L51.86,96.4A137.88,137.88,0,0,0,31,169.51Z"/><path d="M160.67,160,59.78,85a138.52,138.52,0,0,0-15,24.19l83,61.68L44,228.13a138.61,138.61,0,0,0,14.6,24.36l101.61-69.44a14.18,14.18,0,0,0,.46-23.08Z"/><path d="M298.94,219.17H188.64v28.35h95.44A138.36,138.36,0,0,0,298.94,219.17Z"/><path class="cls-2" d="M894.83,123.07H853.62a5,5,0,0,0-5,5V241.94a5,5,0,0,1-5,5H812.49a5,5,0,0,1-5-5V128.07a5,5,0,0,0-5-5H762.21a5,5,0,0,1-5-5V93.31a5,5,0,0,1,5-5H894.83a5,5,0,0,1,5,5v24.76A5,5,0,0,1,894.83,123.07Z"/><path class="cls-2" d="M1054,123.07h-41.21a5,5,0,0,0-5,5V241.94a5,5,0,0,1-5,5H971.7a5,5,0,0,1-5-5V128.07a5,5,0,0,0-5-5H921.42a5,5,0,0,1-5-5V93.31a5,5,0,0,1,5-5H1054a5,5,0,0,1,5,5v24.76A5,5,0,0,1,1054,123.07Z"/><path class="cls-2" d="M1249.3,195.12Q1246.39,220,1231,233.49T1189.88,247q-27.77,0-44.5-19.92t-16.74-53.28V158.73q0-21.84,7.8-38.42t22.12-25.46Q1172.87,86,1191.71,86q25,0,40,13.94t17.54,38.59h-20.77q-2.7-18.8-11.68-27.21t-25.14-8.42q-19.8,0-31,14.65t-11.25,41.69V174.4q0,25.53,10.66,40.62t29.81,15.08q17.23,0,26.43-7.81t12.22-27.17Z"/><path class="cls-2" d="M1299.38,228h74.27v16.9h-95V88.12h20.77Z"/><path class="cls-2" d="M1420.5,244.85h-20.67V88.12h20.67Z"/><path class="cls-2" d="M554.71,93.65V239.9a6.16,6.16,0,0,1-6.27,6H522a6.15,6.15,0,0,1-6.26-6L515.34,147c0-5.93-35,43.92-35,43.92a6.32,6.32,0,0,1-5.15,2.6h-12.9a6.35,6.35,0,0,1-5.18-2.64s-34.73-50.17-34.73-44.22l.19,93.25a6.16,6.16,0,0,1-6.27,6H389.79a6.16,6.16,0,0,1-6.27-6V93.65a6.16,6.16,0,0,1,6.27-6h35.46a6.36,6.36,0,0,1,5.21,2.68l33.45,48.29a6.4,6.4,0,0,0,10.42,0l33.45-48.29A6.33,6.33,0,0,1,513,87.61h35.45A6.16,6.16,0,0,1,554.71,93.65Z"/><path class="cls-2" d="M741.38,204a69.64,69.64,0,0,1-16.53,24,5.84,5.84,0,0,0-.28,8.26L746.2,259c-39.51,0-41.69.29-41.69.29a6.37,6.37,0,0,1-4.76-2.11l-7.09-8a6.52,6.52,0,0,0-6.28-1.93,104.67,104.67,0,0,1-22.25,2.22q-27.3,0-46.37-10.75a69.73,69.73,0,0,1-28.6-29.46q-9.54-18.69-9.53-42.3,0-23.17,9.53-41.77a71.16,71.16,0,0,1,28.6-29.56q19.08-11,46.37-11,26.88,0,45.94,11a71.68,71.68,0,0,1,28.71,29.66q9.65,18.7,9.65,41.67A94.22,94.22,0,0,1,741.38,204ZM631,203.85q11.49,13.89,33.15,13.89h.44l-10.13-11.32a6,6,0,0,1,4.74-10H686a6.36,6.36,0,0,1,4.73,2.08h0c2.81,3.12,7,5.78,9.16,2.19a87,87,0,0,0,5.43-12.94,67.06,67.06,0,0,0,3.26-21.41,60.8,60.8,0,0,0-5.2-25.69,41.06,41.06,0,0,0-15.28-17.76q-10.08-6.47-24-6.47-21.45,0-33,14T619.5,167Q619.5,190,631,203.85Z"/></svg>