<svg id="Logos" xmlns="http://www.w3.org/2000/svg" viewBox="0 0 1445 340"><defs><style>.cls-1{fill:#ffc000;}.cls-2{fill:#fff;}</style></defs><title>HiveMQ-CI-complete</title><path d="M864.83,123.07H823.62a5,5,0,0,0-5,5V241.94a5,5,0,0,1-5,5H782.49a5,5,0,0,1-5-5V128.07a5,5,0,0,0-5-5H732.21a5,5,0,0,1-5-5V93.31a5,5,0,0,1,5-5H864.83a5,5,0,0,1,5,5v24.76A5,5,0,0,1,864.83,123.07Z"/><path d="M1024,123.07H982.83a5,5,0,0,0-5,5V241.94a5,5,0,0,1-5,5H941.7a5,5,0,0,1-5-5V128.07a5,5,0,0,0-5-5H891.42a5,5,0,0,1-5-5V93.31a5,5,0,0,1,5-5H1024a5,5,0,0,1,5,5v24.76A5,5,0,0,1,1024,123.07Z"/><path d="M1219.3,195.12Q1216.39,220,1201,233.49T1159.88,247q-27.77,0-44.5-19.92t-16.74-53.28V158.73q0-21.84,7.8-38.42t22.12-25.46Q1142.87,86,1161.71,86q25,0,40,13.94t17.54,38.59h-20.77q-2.7-18.8-11.68-27.21t-25.14-8.42q-19.8,0-31,14.65t-11.25,41.69V174.4q0,25.53,10.66,40.62t29.81,15.08q17.23,0,26.43-7.81t12.22-27.17Z"/><path d="M1269.38,228h74.27v16.9h-95V88.12h20.77Z"/><path d="M1390.5,244.85h-20.67V88.12h20.67Z"/><circle class="cls-1" cx="158.23" cy="168.69" r="140.28"/><path class="cls-2" d="M146.23,159,38.75,239.78S18,198.9,18,168.69c0-36.32,26.46-80.33,26.46-80.33Z"/><path d="M158.23,315.36c-80.87,0-146.67-65.79-146.67-146.67S77.36,22,158.23,22,304.9,87.82,304.9,168.69,239.11,315.36,158.23,315.36Zm0-280.56C84.41,34.8,24.35,94.87,24.35,168.69S84.41,302.58,158.23,302.58s133.89-60.06,133.89-133.89S232.06,34.8,158.23,34.8Z"/><path d="M47,246.94,31,223.53l87.82-60L33.52,100.14,50.43,77.39l101.24,75.23a14.18,14.18,0,0,1-.46,23.08Z"/><polygon points="279.64 240.17 179.64 240.17 179.64 211.82 287.64 211.82 279.64 240.17"/><path d="M524.71,93.65V239.9a6.16,6.16,0,0,1-6.27,6H492a6.15,6.15,0,0,1-6.26-6L485.34,147c0-5.93-35,43.92-35,43.92a6.32,6.32,0,0,1-5.15,2.6h-12.9a6.35,6.35,0,0,1-5.18-2.64s-34.73-50.17-34.73-44.22l.19,93.25a6.16,6.16,0,0,1-6.27,6H359.79a6.16,6.16,0,0,1-6.27-6V93.65a6.16,6.16,0,0,1,6.27-6h35.46a6.36,6.36,0,0,1,5.21,2.68l33.45,48.29a6.4,6.4,0,0,0,10.42,0l33.45-48.29A6.33,6.33,0,0,1,483,87.61h35.45A6.16,6.16,0,0,1,524.71,93.65Z"/><path d="M711.38,204a69.64,69.64,0,0,1-16.53,24,5.84,5.84,0,0,0-.28,8.26L716.2,259c-39.51,0-41.69.29-41.69.29a6.37,6.37,0,0,1-4.76-2.11l-7.09-8a6.52,6.52,0,0,0-6.28-1.93,104.67,104.67,0,0,1-22.25,2.22q-27.3,0-46.37-10.75a69.73,69.73,0,0,1-28.6-29.46q-9.54-18.69-9.53-42.3,0-23.17,9.53-41.77a71.16,71.16,0,0,1,28.6-29.56q19.08-11,46.37-11,26.88,0,45.94,11a71.68,71.68,0,0,1,28.71,29.66q9.65,18.7,9.65,41.67A94.22,94.22,0,0,1,711.38,204ZM601,203.85q11.49,13.89,33.15,13.89h.44l-10.13-11.32a6,6,0,0,1,4.74-10H656a6.36,6.36,0,0,1,4.73,2.08h0c2.81,3.12,7,5.78,9.16,2.19a87,87,0,0,0,5.43-12.94,67.06,67.06,0,0,0,3.26-21.41,60.8,60.8,0,0,0-5.2-25.69,41.06,41.06,0,0,0-15.28-17.76q-10.08-6.47-24-6.47-21.45,0-33,14T589.5,167Q589.5,190,601,203.85Z"/></svg>